<?xml version="1.0" encoding="utf-8"?>
<svg xmlns="http://www.w3.org/2000/svg" version="1.1"
    xmlns:xlink="http://www.w3.org/1999/xlink"
    width="540" height="860"
    fill="#ffffff" stroke="#000000" stroke-width="5px">
    <defs>
        <clipPath id="card-image">
            <rect width="470" height="350"/>
        </clipPath>
        <clipPath id="card-text">
            <rect width="470" height="350"/>
        </clipPath>
    </defs>
    <!--border-->
    <rect stroke="#000" stroke-width="30" x="0" y="0" width="540" height="860" rx="45" ry="45"/>
    <g transform="translate(15 15)">
        <!--type-->
        <circle cx="50" cy="50" r="50" style="stroke:none" fill="#ff0000"/>
        <!--<g>
            <path d="M 75,75 l 10,-30 -50,-20 -3,9 -10,-4 -7,21 10,20 40,16z"/>
            <path d="M 30,40 l 10,-30 12,5 -10,30z"/>
            <path d="M 41,48 l 10,-30 12,5 -10,30z"/>
            <path d="M 52,56 l 10,-30 12,5 -10,30z"/>
            <path d="M 63,62 l 10,-30 12,5 -10,30z"/>
        </g>-->
        <!--<g>
            <path d="M 70,80 l 8,-24 -20,-16    5,-30 -12,-2 -5,32 -5,-30 -12,2 5,28    -2.4,7.2 -5.6,16.8 8,16 30,10z"/>
            <path d="M 52,61 l 8,-24 9.6,4 -8,24z"/>
            <path d="M 60.8,65.8 l 8,-24 9.6,4 -8,24z"/>
            <path d="M 25.8,50.8 l 15,5 -4,9.6 -15,-5z"/>
        </g>-->
        <g><!---20,0-->
            <path d="M 60,90 l 30,-30 -8,-8 -18,18 -2,-2 20,-40 -10,-5 -16,32 -4,-2 10,-40 -12,-3 -10,40 -4,-1 6,-36 -12,-2 -8,48 -10,-20 -10,5 15,30 10,12 20,10Z"/>
    
        </g>
        <g clip-path="url(#card-image)" transform="translate(20 110)">
            <rect x="-10" y="-10" width="1000" height="2000" fill="#00ff00"/>
        </g>
        <g clip-path="url(#card-text)" transform="translate(20 460)">
            <rect x="0" y="0" width="1000" height="2000" fill="#0000ff"/>
        </g>
        <image width="160" height="160" x="330" y="670" href="test_qr.png"/>
    </g>

    <rect stroke="#fff" style="fill:none" stroke-width="1" x="0" y="0" width="540" height="860" rx="30" ry="30"/>

</svg>